# xmcd CD database file
#
# Track frame offsets:
#	150
#	32115
#	54615
#	91823
#	124126
#	146626
#	186738
#	221443
#	253171
#	284646
#	322131
#
# Disc length: 4546 seconds
#
# Revision: 0
# Processed by: cddbd v1.5.2PL0 Copyright (c) Steve Scherf et al.
# Submitted via: CDex 1.78
#
DISCID=b611c00b
DTITLE=Bill Burns - Live at the Village Vanguard
DYEAR=1961
DGENRE=Jazz
TTITLE0=Alice in Wonderland
TTITLE1=My Foolish Heart
TTITLE2=All Of You
TTITLE3=My Romance
TTITLE4=Some Other Time
TTITLE5=Solar
TTITLE6=Detour Ahead
TTITLE7=Glorias Strip
TTITLE8=Waltz For Debby
TTITLE9=All Of You
TTITLE10=Jade Vision
EXTD=YEAR: 1961
EXTT0=
EXTT1=
EXTT2=
EXTT3=
EXTT4=
EXTT5=
EXTT6=
EXTT7=
EXTT8=
EXTT9=
EXTT10=
PLAYORDER=
